<?xml version="1.0" encoding="UTF-8"?>
<svg xmlns="http://www.w3.org/2000/svg" width="640" height="380" viewBox="0 0 640 380">
  <rect width="640" height="380" rx="24" fill="#F2F0E6"/>
  <svg x="291" y="22" width="58" height="54" viewBox="0 -380 940 860"><path class="ink" fill="#202720" fill-rule="evenodd" d="M100 0H420V40H460V60H480V100H520V380H480V420H460V440H420V480H100V440H60V420H40V380H0V100H40V60H60V40H100Z M160 120V160H120V340H160V380H360V340H400V160H360V120Z"/><path fill="#38A148" fill-rule="evenodd" transform="translate(420 -380)" d="M100 0H420V40H460V60H480V100H520V380H480V420H460V440H420V480H100V440H60V420H40V380H0V100H40V60H60V40H100Z M160 120V160H120V340H160V380H360V340H400V160H360V120Z"/><path fill="#20F4C4" d="M420 0H460V40H480V60H520V100H480V60H460V40H420Z"/></svg>
  <text x="320" y="102" fill="#202720" text-anchor="middle" font-family="-apple-system, BlinkMacSystemFont, sans-serif" font-size="22" font-weight="650">Install Menlo</text>
  <path d="M246 213 H386" fill="none" stroke="#38A148" stroke-width="8" stroke-linecap="round"/>
  <path d="M365 192 L391 213 L365 234" fill="none" stroke="#38A148" stroke-width="8" stroke-linecap="round" stroke-linejoin="round"/>
  <rect x="76" y="258" width="138" height="30" rx="10" fill="#202720"/>
  <rect x="426" y="258" width="138" height="30" rx="10" fill="#202720"/>
  <text x="320" y="307" fill="#60695E" text-anchor="middle" font-family="-apple-system, BlinkMacSystemFont, sans-serif" font-size="16">Drag Menlo into Applications</text>
</svg>
